<svg xmlns="http://www.w3.org/2000/svg" xmlns:xlink="http://www.w3.org/1999/xlink" viewBox="0 0 1089.13 359.55"><defs><style>.cls-1{fill:#3f37c9;}.cls-2{fill:url(#linear-gradient);}</style><linearGradient id="linear-gradient" x1="263.8" y1="578.14" x2="733.72" y2="108.21" gradientUnits="userSpaceOnUse"><stop offset="0" stop-color="#3f37c9"/><stop offset="1" stop-color="#9e99e8"/></linearGradient></defs><g id="Layer_2" data-name="Layer 2"><g id="Layer_1-2" data-name="Layer 1"><path class="cls-1" d="M105.47,125c-7.52-6.5-18.25-9.94-31-9.94H35.84a4.36,4.36,0,0,0-4.16,3.41l-14.59,65-17,71.38s0,0,0,.07a3.52,3.52,0,0,0,.69,3A3.41,3.41,0,0,0,3.44,259h7.2a4.36,4.36,0,0,0,4.16-3.41l12-54.19h33.8c33.44,0,56.8-19.66,56.8-47.8C117.44,141.65,113.3,131.74,105.47,125Zm-2.63,29.26c0,21.14-15.86,34.8-40.4,34.8H29.71l.88-4.16,13.82-57.24H72.84C92.18,127.64,102.84,137.09,102.84,154.24Z"/><path class="cls-1" d="M210.59,156.23a3.55,3.55,0,0,0-.68-3,3.44,3.44,0,0,0-2.68-1.23h-6.6a4.35,4.35,0,0,0-4.15,3.38l-9.6,42.38L181.54,220C169.46,244,155.57,249,146,249c-6.91,0-12.3-2.21-15.6-6.39-4.27-5.42-5.12-14.18-2.45-25.34l4.21-18.63,10-42.38a.64.64,0,0,0,0-.07,3.58,3.58,0,0,0-.69-3,3.44,3.44,0,0,0-2.68-1.23h-6.4a4.35,4.35,0,0,0-4.15,3.38l-9.6,42.38-4.4,19.6c-3.22,13.92-1.55,25.53,4.83,33.55,5.38,6.76,14,10.49,24.12,10.49,13.86,0,25.26-7.43,32.84-15.92l-2.37,9.22,0,.11a3.5,3.5,0,0,0,.73,2.91A3.45,3.45,0,0,0,177,259h6.4a4.38,4.38,0,0,0,4.17-3.41l12.58-55.95,10.4-43.37S210.59,156.26,210.59,156.23Z"/><path class="cls-1" d="M274.07,164a3.53,3.53,0,0,0,1.2.21,3.59,3.59,0,0,0,3.52-2.9l1.19-5.18a3.78,3.78,0,0,0-.54-2.9,3.74,3.74,0,0,0-2.41-1.71,34,34,0,0,0-7-.64c-12.23,0-23.86,5.65-33.45,16.11l2.79-10.6a.5.5,0,0,0,0-.12,3.55,3.55,0,0,0-.68-3A3.44,3.44,0,0,0,236,152h-6.6a4.36,4.36,0,0,0-4.16,3.41l-10.59,48-12.39,51.36,0,.08a3.58,3.58,0,0,0,.69,3,3.42,3.42,0,0,0,2.67,1.23h6.6a4.37,4.37,0,0,0,4.16-3.38l14.54-63.54c9.31-18.5,22.69-28.68,37.7-28.68A26.65,26.65,0,0,1,274.07,164Z"/><path class="cls-1" d="M348.8,163.73c-7.32-8.82-18.44-13.49-32.17-13.49-16.2,0-30.81,7.36-41.13,20.73-9.2,11.9-14.47,27.82-14.47,43.67,0,13.6,3.7,25,10.69,33.09,7.46,8.57,18.56,13.11,32.11,13.11,24.33,0,40.39-12.73,47.72-37.84a1,1,0,0,0,0-.17,3.52,3.52,0,0,0-.69-3,3.42,3.42,0,0,0-2.67-1.23h-5.8a4.37,4.37,0,0,0-4.14,3.32C333.29,239.68,321.45,249,304,249c-9.81,0-17.28-3.18-22.2-9.44-4.65-5.9-7-14.36-7-25.16a68.87,68.87,0,0,1,.38-7.2h77a4.36,4.36,0,0,0,4.16-3.41C359.5,187.34,356.88,173.48,348.8,163.73Zm-71.16,31.51c2.65-9.2,7.05-17,12.83-22.76A34.83,34.83,0,0,1,315.83,162c9.54,0,17.23,3.21,22.25,9.27s6.9,14.47,5.46,23.93Z"/><path class="cls-1" d="M381,257.14a2.58,2.58,0,0,1-2.4-2.4l1.4-67.6-1.4-67.6a2.58,2.58,0,0,1,2.4-2.4h26.6a2.58,2.58,0,0,1,2.4,2.4l-1.2,65.8,1.2,49.2h56a2.58,2.58,0,0,1,2.4,2.4v17.8a2.58,2.58,0,0,1-2.4,2.4Z"/><path class="cls-1" d="M544.84,257.14a2.58,2.58,0,0,1-2.4-2.4l.4-9.6c-7.2,8.8-17.4,14-30.4,14-29.2,0-44.6-23.2-44.6-53.2,0-29.8,17.2-53.8,45.2-53.8,12.8,0,22.8,4.6,29.8,13l-.4-8.6a2.26,2.26,0,0,1,2.2-2.4h25.6a2.58,2.58,0,0,1,2.4,2.4l-1,49.2,1,49a2.58,2.58,0,0,1-2.4,2.4Zm-24-18c14.6,0,22.4-11,22.6-32.8.2-22-7.6-34-22-34.2-15.2-.4-23,11-23,32.2C498.44,227.54,506.44,239.34,520.84,239.14Z"/><path class="cls-1" d="M618.43,259.54c-21.8,0-35.6-14.8-35.6-40v-21.6l-.8-41.4a2.58,2.58,0,0,1,2.4-2.4H610a2.58,2.58,0,0,1,2.4,2.4l-.6,41.4v21.2c0,11.2,6.8,18.4,15.8,18.4,10.8,0,22.4-10,22.4-32v-7.6l-.4-41.4a2.58,2.58,0,0,1,2.4-2.4h26a2.58,2.58,0,0,1,2.4,2.4l-1,47,.6,51.2a2.58,2.58,0,0,1-2.4,2.4h-24.2a2.26,2.26,0,0,1-2.2-2.4l.4-10.6C644.63,253.14,632.83,259.54,618.43,259.54Z"/><path class="cls-1" d="M693.63,257.14a2.58,2.58,0,0,1-2.4-2.4l1-47-.6-51.2a2.58,2.58,0,0,1,2.4-2.4h24.2a2.26,2.26,0,0,1,2.2,2.4l-.4,10.6c7-9,18.8-15.4,33.2-15.4,21.8,0,35.6,14.8,35.6,40v21.6l.8,41.4a2.58,2.58,0,0,1-2.4,2.4h-25.6a2.58,2.58,0,0,1-2.4-2.4l.6-41.4v-21.2c0-11.2-6.8-18.4-15.8-18.4-10.8,0-22.4,10-22.4,32v7.6l.4,41.4a2.58,2.58,0,0,1-2.4,2.4Z"/><path class="cls-1" d="M869.43,257.14a2.26,2.26,0,0,1-2.2-2.4l.4-9.6c-7.2,8.8-17.4,14-30.4,14-29.2,0-44.6-23.2-44.6-53.2,0-29.8,17.2-53.8,45.2-53.8,12.6,0,22.6,4.4,29.4,12.8l-.4-45.4a2.58,2.58,0,0,1,2.4-2.4H895a2.58,2.58,0,0,1,2.4,2.4l-.8,67.6.8,67.6a2.58,2.58,0,0,1-2.4,2.4Zm-23.8-17.8c14.6,0,22.4-11,22.6-32.8.2-22.2-7.6-34.4-22-34.6-15.2-.4-23,11.2-23,32.6C823.23,227.74,831.23,239.54,845.63,239.34Z"/><path class="cls-1" d="M909.83,257.14a2.58,2.58,0,0,1-2.4-2.4l1-49.2-1-49a2.58,2.58,0,0,1,2.4-2.4h25.4a2.26,2.26,0,0,1,2.2,2.4l-.6,15c8-12.2,21.8-18.2,36.8-18.2a24.62,24.62,0,0,1,4,.4,3,3,0,0,1,2.4,2.8v17.4a2.27,2.27,0,0,1-2.4,2.2,17.2,17.2,0,0,0-3.2-.2c-21.2,0-37,11.8-36.8,35.4l.2,43.4a2.58,2.58,0,0,1-2.4,2.4Z"/><path class="cls-1" d="M1043.63,288.94a3.52,3.52,0,0,1-3.2,2.2h-23.8a1.66,1.66,0,0,1-1.6-2.2l10.6-30.8-41.2-101.8a1.66,1.66,0,0,1,1.6-2.2h29a3.52,3.52,0,0,1,3.2,2.2l22.2,63.8,18.4-63.6a3.19,3.19,0,0,1,3-2.4h25.6a1.66,1.66,0,0,1,1.6,2.2Z"/><path class="cls-2" d="M49.54,359.55A10.5,10.5,0,0,1,48,338.67c1.71-.27,174-26.24,370.11-40.58,115.31-8.43,216.24-11.25,300-8.38,105.52,3.61,184.27,16.38,234.09,38a10.5,10.5,0,0,1-8.35,19.27c-108.09-46.82-344.64-41-524-27.91C224.44,333.3,52.84,359.17,51.13,359.43A10.84,10.84,0,0,1,49.54,359.55Z"/><path class="cls-1" d="M850.47,11.88A24.08,24.08,0,0,0,831.54,24c-7.56,12.68,1.23,24.86,6.94,29.53a4,4,0,1,0,5.06-6.19,24.26,24.26,0,0,1-5-6.14c-2.59-4.65-2.64-8.94-.16-13.11a15.94,15.94,0,0,1,12.67-8.19c3.77-.27,6.44.85,7.15,1.57a4.24,4.24,0,0,0,4.52,1.3,4,4,0,0,0,1.72-6.31C861.83,13.21,856.34,11.43,850.47,11.88Z"/><path class="cls-1" d="M766.23,59.22a43.37,43.37,0,0,0-23.09-2.47c-12.45,2-23.32,9.39-31.43,21.32-19,28,3.19,57.22,3.42,57.51a4,4,0,1,0,6.32-4.9c-.19-.25-18.91-24.88-3.12-48.11,18.56-27.32,44.59-16.07,44.85-15.95a4,4,0,0,0,5.53-2.73A4.13,4.13,0,0,0,766.23,59.22Z"/><path class="cls-1" d="M934.44,103.16a32.68,32.68,0,0,0-6.75.71h0a87.91,87.91,0,0,0-46.57-57.14h0a35.52,35.52,0,0,0,2.1-12C883.22,15.56,868.1,0,849.52,0s-33.7,15.56-33.7,34.68a35.56,35.56,0,0,0,1.11,8.81h0A84.34,84.34,0,0,0,792.86,57h0a62,62,0,0,0-40.64-15.25c-35,0-63.39,29.33-63.39,65.37,0,1.8.09,3.57.23,5.33h0a34.31,34.31,0,0,0-25,25.73,3.83,3.83,0,0,0,3.76,4.63h0a4.29,4.29,0,0,0,4.16-3.26,26.29,26.29,0,0,1,18.19-19.12h0c.34,1.66.75,3.29,1.2,4.91h0a42,42,0,0,0-6.66,4.3,20,20,0,0,0-6.35,8.64,3.34,3.34,0,0,0,3.12,4.53h0a5.5,5.5,0,0,0,4.92-2.91,11.56,11.56,0,0,1,3.21-3.93,35.76,35.76,0,0,1,4.42-3h0a65.7,65.7,0,0,0,3.42,6.94,5.72,5.72,0,0,0,5,2.88h0a3.42,3.42,0,0,0,2.92-5.2,58,58,0,0,1-6.25-14.29v-.26H699a59,59,0,0,1-2.19-15.94c0-31.63,24.85-57.37,55.39-57.37s55.39,25.74,55.39,57.37a58.28,58.28,0,0,1-14.36,38.48,4.63,4.63,0,0,0,0,6l.06.07a3.42,3.42,0,0,0,5.14.13,66.76,66.76,0,0,0,8.49-77.7h0c3.89-3.52,12.46-10.06,23.22-10.78a2.66,2.66,0,0,0,.39-.07,32.8,32.8,0,0,0,19,6.07,33.47,33.47,0,0,0,28-15.46h0c26.56,12.72,45.05,40.55,45.05,72.78a82.74,82.74,0,0,1-.82,11.64,3.94,3.94,0,0,0,3.88,4.52h0a4.1,4.1,0,0,0,4.06-3.53,90.6,90.6,0,0,0,.88-12.63c0-.93,0-1.85-.05-2.77h0a15.6,15.6,0,0,1,4.15-.91c4-.31,6.84,1,7.28,1.72a2.69,2.69,0,0,0,2.08,1.5c4.57.19,6.12-4.13,4-6.67-2.63-3.2-8.13-5-14-4.53a23,23,0,0,0-4.17.71h0c-.16-1.36-.36-2.7-.58-4h0a24.49,24.49,0,0,1,5.09-.54c14.17,0,25.7,12,25.7,26.68,0,.46,0,.92,0,1.37a3.42,3.42,0,0,0,3.39,3.64h0a4.63,4.63,0,0,0,4.64-4.56c0-.15,0-.3,0-.45C968.14,118.72,953,103.16,934.44,103.16ZM802.89,67.93a63.34,63.34,0,0,0-4.27-5.24h0A76.57,76.57,0,0,1,819.78,51h0a34.43,34.43,0,0,0,3.94,6h0a49.24,49.24,0,0,0-20.83,11Zm46.63-6.56c-14.17,0-25.7-12-25.7-26.69S835.35,8,849.52,8s25.7,12,25.7,26.68S863.69,61.37,849.52,61.37Z"/></g></g></svg>